<svg width="42" height="39" viewBox="0 0 42 39" fill="none" xmlns="http://www.w3.org/2000/svg">
<path d="M10.953 39C10.0178 39 9.21739 38.6674 8.55192 38.0021C7.88532 37.3357 7.55202 36.535 7.55202 35.6C7.55202 34.665 7.88532 33.8643 8.55192 33.1979C9.21739 32.5326 10.0178 32.2 10.953 32.2C11.8883 32.2 12.6887 32.5326 13.3542 33.1979C14.0207 33.8643 14.354 34.665 14.354 35.6C14.354 36.535 14.0207 37.3357 13.3542 38.0021C12.6887 38.6674 11.8883 39 10.953 39ZM27.9581 39C27.0228 39 26.2224 38.6674 25.557 38.0021C24.8904 37.3357 24.5571 36.535 24.5571 35.6C24.5571 34.665 24.8904 33.8643 25.557 33.1979C26.2224 32.5326 27.0228 32.2 27.9581 32.2C28.8934 32.2 29.6943 32.5326 30.3609 33.1979C31.0264 33.8643 31.3591 34.665 31.3591 35.6C31.3591 36.535 31.0264 37.3357 30.3609 38.0021C29.6943 38.6674 28.8934 39 27.9581 39ZM9.50761 11.8L13.5888 20.3H25.4924L30.1688 11.8H9.50761ZM10.953 30.5C9.67766 30.5 8.71404 29.9401 8.06218 28.8204C7.41032 27.7018 7.38197 26.59 7.97715 25.485L10.2728 21.32L4.15101 8.4H2.40799C1.92618 8.4 1.5294 8.2368 1.21764 7.9104C0.90588 7.58513 0.75 7.18167 0.75 6.7C0.75 6.21833 0.913249 5.8143 1.23975 5.4879C1.56511 5.16263 1.9687 5 2.45051 5H5.21383C5.52559 5 5.82318 5.085 6.10659 5.255C6.39001 5.425 6.60258 5.66583 6.74428 5.9775L7.89213 8.4H32.9746C33.7398 8.4 34.2641 8.68333 34.5476 9.25C34.831 9.81667 34.8168 10.4117 34.505 11.035L28.4682 21.915C28.1565 22.4817 27.7455 22.9208 27.2354 23.2325C26.7252 23.5442 26.1442 23.7 25.4924 23.7H12.8236L10.953 27.1H29.7011C30.1829 27.1 30.5797 27.2626 30.8915 27.5879C31.2032 27.9143 31.3591 28.3183 31.3591 28.8C31.3591 29.2817 31.1959 29.6851 30.8694 30.0104C30.544 30.3368 30.1404 30.5 29.6586 30.5H10.953ZM13.5888 20.3H25.4924H13.5888Z" fill="#9B9B9B"/>
<circle cx="31.2084" cy="10" r="10" fill="#006EB3"/>
<path d="M31.1564 15.18C30.5444 15.18 30.0044 15.05 29.5364 14.79C29.0684 14.526 28.7024 14.16 28.4384 13.692C28.1784 13.224 28.0484 12.684 28.0484 12.072V9.288C28.0484 8.676 28.1784 8.136 28.4384 7.668C28.7024 7.2 29.0684 6.836 29.5364 6.576C30.0044 6.312 30.5444 6.18 31.1564 6.18C31.7684 6.18 32.3064 6.312 32.7704 6.576C33.2384 6.836 33.6044 7.2 33.8684 7.668C34.1324 8.136 34.2644 8.676 34.2644 9.288V12.072C34.2644 12.684 34.1324 13.224 33.8684 13.692C33.6044 14.16 33.2384 14.526 32.7704 14.79C32.3064 15.05 31.7684 15.18 31.1564 15.18ZM31.1564 13.806C31.4604 13.806 31.7364 13.734 31.9844 13.59C32.2324 13.442 32.4284 13.246 32.5724 13.002C32.7164 12.754 32.7884 12.478 32.7884 12.174V9.18C32.7884 8.872 32.7164 8.596 32.5724 8.352C32.4284 8.104 32.2324 7.908 31.9844 7.764C31.7364 7.616 31.4604 7.542 31.1564 7.542C30.8524 7.542 30.5764 7.616 30.3284 7.764C30.0804 7.908 29.8844 8.104 29.7404 8.352C29.5964 8.596 29.5244 8.872 29.5244 9.18V12.174C29.5244 12.478 29.5964 12.754 29.7404 13.002C29.8844 13.246 30.0804 13.442 30.3284 13.59C30.5764 13.734 30.8524 13.806 31.1564 13.806Z" fill="white"/>
</svg>
