<svg width="175" height="62" viewBox="0 0 175 62" fill="none" xmlns="http://www.w3.org/2000/svg">
<path d="M5.33786 38.9318C5.97731 41.9592 8.25501 43.6872 11.7909 43.6872C15.6403 43.6872 17.1809 41.9211 17.1809 39.5588C17.1809 37.1964 15.6326 35.9176 10.6304 34.6461C2.84268 32.6645 1.08351 30.1095 1.08351 26.2399C1.08351 22.3703 3.84649 18.1611 11.3466 18.1611C18.8467 18.1611 21.6302 22.2335 21.9895 26.4278H16.7466C16.3486 24.5068 15.1339 22.2157 11.105 22.2157C7.72054 22.2157 6.43663 23.8119 6.43663 25.791C6.43663 27.7701 7.54587 28.808 12.4813 30.0234C20.6389 32.0331 22.6417 34.7733 22.6417 39.135C22.6417 44.2909 18.4974 47.7798 11.616 47.7798C4.73462 47.7798 0.636945 44.4556 0 38.9318H5.33786Z" fill="black"/>
<path d="M25.8724 26.8007C25.8724 22.6165 25.844 20.4776 25.7875 18.775H31.0536C31.164 19.4501 31.2745 22.1246 31.2565 23.1597C32.407 20.7618 34.8823 18.1611 39.9073 18.1611C45.3715 18.1611 49.2745 21.4139 49.2745 28.8791V47.1936H43.8622V29.6451C43.8622 25.6283 42.4266 22.7281 38.241 22.7281C33.3261 22.7281 31.2693 26.2604 31.2693 31.9341V47.1936H25.8724V26.8009V26.8007Z" fill="black"/>
<path d="M86.3874 27.7358C86.3874 23.582 86.3567 20.6514 86.3027 19.0552H91.5941C91.6893 20.0983 91.7431 22.1762 91.7431 24.6832C93.1092 21.1665 96.3112 18.5582 101.136 18.4668V23.8482C95.0171 23.9877 91.7843 27.0708 91.7843 33.8253V47.4738H86.3872V27.7358H86.3874Z" fill="black"/>
<path d="M110.617 55.6035H104.566V61.9998H110.617V55.6035Z" fill="black"/>
<path d="M110.617 43.9178V58.3506H104.566V26.4051C104.566 24.8573 104.57 23.4498 104.561 22.179C104.553 20.9085 104.533 19.7748 104.485 18.775H110.418C110.473 19.2406 110.519 19.929 110.553 20.701C110.588 21.4731 110.61 22.3289 110.618 23.1293C111.413 21.7693 112.598 20.5273 114.261 19.6252C115.924 18.7233 118.065 18.1611 120.771 18.1611C124.38 18.1611 127.511 19.4488 129.74 21.8732C131.969 24.2977 133.297 27.8588 133.297 32.4057C133.297 37.3118 131.786 41.1515 129.308 43.7646C126.829 46.3779 123.383 47.7645 119.513 47.7645C117.089 47.7645 115.211 47.3376 113.767 46.6432C112.322 45.9489 111.311 44.9872 110.618 43.9176L110.617 43.9178ZM127.054 32.5835C127.054 26.3034 124.034 22.6723 118.92 22.6723C112.541 22.6723 110.342 26.3135 110.342 33.0097C110.342 39.3 112.075 43.3066 118.549 43.3066C124.026 43.3066 127.054 39.376 127.054 32.5833V32.5835Z" fill="black"/>
<path d="M136.821 47.1935V0H142.485V47.1935H136.821Z" fill="black"/>
<path d="M152.41 34.0408C152.41 39.3468 155.277 43.4268 160.838 43.4268C165.864 43.4268 167.44 40.8689 168.253 39.1436H174.463C173.226 42.8327 169.754 47.8061 160.612 47.8061C150.119 47.8061 146.09 40.78 146.09 33.1249C146.09 25.4699 150.63 18.1724 160.953 18.1724C171.276 18.1724 175 25.282 175 31.7648C175 32.3078 174.985 33.5385 174.923 34.0408H152.41ZM168.769 30.3339C168.653 25.8704 166.336 22.3482 160.852 22.3482C154.935 22.3482 152.98 26.388 152.573 30.3339H168.769Z" fill="black"/>
<path d="M60.3563 20.4684C59.8487 20.7225 59.1625 21.1149 58.4318 21.6998C57.3988 22.5263 56.7853 23.3301 56.2718 24.012C55.8526 24.5689 55.1348 25.5347 54.5272 26.9673C54.4254 27.2074 54.0551 28.1007 53.7796 29.3344C53.6853 29.7567 53.5268 30.5551 53.4612 31.5781C53.3829 32.7985 53.4747 33.7395 53.5166 34.1093C53.6188 35.0089 53.785 35.6825 53.8488 35.9291C53.9016 36.133 54.0542 36.703 54.3334 37.4204C54.4455 37.7086 54.6755 38.2712 55.0396 38.9528C55.4814 39.78 55.9006 40.37 56.0641 40.5946C56.2156 40.8026 56.5754 41.2841 57.1025 41.8534C57.517 42.301 57.9146 42.6732 58.2655 42.9754C58.319 42.8542 58.3969 42.6883 58.501 42.4966C58.5611 42.3859 58.8419 41.8759 59.3732 41.2515C59.942 40.5827 60.4756 40.1621 60.6054 40.0611C61.2608 39.5521 61.8285 39.2771 62.3361 39.0349C62.7544 38.8353 63.3508 38.5545 64.1914 38.3371C65.1458 38.0905 65.8754 38.0653 66.3236 38.0498C66.3236 38.0498 66.6756 38.0376 67.265 38.1045C67.7302 38.1573 67.8939 38.2149 68.0404 38.3234C68.2608 38.4868 68.3549 38.7003 68.3865 38.7748C68.4264 38.8687 68.5302 39.1223 68.4557 39.4314C68.3902 39.7042 68.2221 39.87 68.1235 39.965C68.0736 40.0129 67.9008 40.172 67.362 40.3617C67.2212 40.4112 67.0659 40.4592 66.3513 40.6216C66.0284 40.695 65.9041 40.7206 65.5484 40.7994C64.9385 40.9344 64.6338 41.0019 64.4685 41.0456C64.0823 41.1478 63.791 41.2504 63.2085 41.456C63.0726 41.504 62.6387 41.6581 62.1009 41.8802C61.665 42.06 62.0002 41.9381 61.3808 42.2223C61.3808 42.2223 61.3059 42.2567 60.9654 42.4822C60.9183 42.5135 60.8349 42.5699 60.7855 42.6737C60.7669 42.7128 60.7363 42.7788 60.7577 42.8515C60.7805 42.9286 60.8488 42.9691 60.8823 42.9883C60.9855 43.0475 61.0763 43.0344 61.2977 43.0292C61.5101 43.0245 61.4106 43.0369 61.6024 43.0292C62.1689 43.007 62.613 42.9471 62.613 42.9471C63.2821 42.8571 63.3814 42.8803 64.0529 42.7965C65.2016 42.6537 66.1908 42.4266 66.5868 42.3314C68.0921 41.9693 69.1355 41.5596 70.0621 41.1957C70.2538 41.1203 70.6781 40.9513 71.1975 40.6621C71.6143 40.4301 71.9474 40.2418 72.3052 39.8959C72.53 39.6788 72.8085 39.4042 73.0114 38.9519C73.0867 38.7838 73.2933 38.3079 73.2329 37.6931C73.1949 37.3069 73.0687 37.0407 72.859 36.5985C72.6916 36.2457 72.5133 35.9568 72.333 35.6955C71.9338 35.1176 71.5482 34.7099 71.0591 34.2177C70.2461 33.3997 69.5916 32.7973 69.4254 32.6443C68.3924 31.6951 68.2544 31.595 67.487 30.8929C66.5351 30.0223 65.8296 29.3769 64.9531 28.4574C63.998 27.4556 63.4171 26.7339 63.2639 26.542C62.8423 26.0143 62.4213 25.4832 61.9485 24.7086C61.4953 23.9663 61.2127 23.3576 61.0624 23.0121C60.9033 22.6467 60.7379 22.263 60.5917 21.7261C60.4546 21.2229 60.3897 20.7877 60.3563 20.4673V20.4684Z" fill="black"/>
<path d="M61.2909 44.9727C61.8092 44.9325 62.4386 44.8728 63.1532 44.7812C64.2067 44.6462 65.0809 44.4889 65.7078 44.364C66.5789 44.1905 67.3142 44.044 68.2952 43.7501C68.99 43.542 69.5782 43.3212 70.7546 42.8797C71.3217 42.6669 71.5619 42.5681 71.8345 42.4418C72.1693 42.287 72.7518 41.9985 73.4268 41.5525C73.6431 41.4096 73.9892 41.1794 74.4098 40.8272C74.83 40.4757 75.1051 40.1861 75.1714 40.1157C75.3779 39.8963 75.5767 39.6857 75.7944 39.3632C76.0385 39.0018 76.1731 38.6982 76.2651 38.4876C76.4113 38.1532 76.5158 37.9138 76.5698 37.5708C76.5842 37.4795 76.6231 37.1917 76.5837 36.8183C76.5628 36.6192 76.522 36.4209 76.4314 36.1342C76.2218 35.4711 75.9488 34.9778 75.8914 34.8754C75.4234 34.0403 74.8901 33.4359 74.6453 33.1652C73.8257 32.2594 73.1123 31.6435 72.43 31.0582C70.9525 29.7909 69.4543 28.5213 68.9133 28.062C67.3203 26.7098 66.9623 26.3875 66.6009 26.0507C65.7579 25.2648 65.1371 24.682 64.4132 23.8069C63.828 23.0989 63.2634 22.4164 62.7378 21.3714C62.2348 20.3713 62.0171 19.536 61.7825 18.635C61.4662 17.4205 61.3637 16.5098 61.3394 16.2817C61.2613 15.5476 61.2581 14.9983 61.2563 14.3799C61.2544 13.703 61.2783 12.8085 61.3808 11.7529C61.417 12.2075 61.4783 12.8002 61.5885 13.4906C61.6491 13.87 61.7475 14.4238 61.9069 15.0915C62.1202 15.9851 62.2999 16.4822 62.4746 16.8701C62.5418 17.0195 62.6898 17.3337 62.9592 17.6773C63.1468 17.9165 63.2894 18.0378 63.3331 18.074C63.3821 18.1145 63.5943 18.2873 63.9284 18.4298C63.9849 18.4539 64.2404 18.5605 64.6346 18.6213C64.7295 18.6359 64.9921 18.6726 65.7283 18.635C66.056 18.6184 66.1093 18.6058 66.6283 18.5666C67.1564 18.5268 67.4203 18.507 67.722 18.4982C68.2877 18.4815 68.7643 18.5099 69.0927 18.5392C69.2262 18.5511 69.816 18.606 70.5882 18.7718C71.0817 18.8778 71.4474 18.9854 71.6958 19.0592C72.0429 19.1623 72.5022 19.2998 73.0804 19.5381C73.2364 19.6024 73.7576 19.8209 74.4096 20.1812C74.6066 20.2901 75.1932 20.6205 75.9051 21.1389C76.6987 21.717 77.2523 22.2402 77.4973 22.4797C77.8278 22.8026 78.0682 23.0697 78.1757 23.1912C78.7234 23.8098 79.0771 24.3253 79.3112 24.669C79.5473 25.0155 79.8219 25.4188 80.128 25.9962C80.501 26.6996 80.7114 27.2663 80.8481 27.638C80.9904 28.0255 81.2202 28.6592 81.4019 29.5262C81.4349 29.6838 81.5895 30.4374 81.651 31.4554C81.6697 31.763 81.707 32.5488 81.6232 33.5624C81.5961 33.8898 81.554 34.3833 81.4294 35.0264C81.2905 35.7431 81.122 36.2715 80.9587 36.7776C80.7873 37.3087 80.6636 37.6923 80.4327 38.2005C80.1298 38.8668 79.8272 39.3416 79.602 39.6917C79.2371 40.259 78.9229 40.658 78.702 40.9368C78.3087 41.4332 77.8007 42.0689 77.0127 42.7839C76.7292 43.0413 76.2888 43.4182 75.7113 43.8237C75.4205 44.0278 74.9776 44.3215 74.4098 44.6309C74.219 44.7349 73.6039 45.0641 72.7484 45.3971C72.6129 45.4498 72.1007 45.6469 71.4053 45.8485C70.8788 46.0013 70.4001 46.1402 69.7438 46.2315C69.4618 46.2709 69.2282 46.2896 68.7607 46.3274C68.2647 46.3675 67.9876 46.3897 67.653 46.3958C67.0179 46.4075 66.5488 46.3544 65.9499 46.2865C65.5698 46.2432 65.1549 46.1951 64.6068 46.0812C64.1841 45.9932 63.8671 45.9048 63.5683 45.8213C63.117 45.6953 62.8296 45.615 62.4468 45.4656C62.2157 45.3753 61.9349 45.2542 61.7267 45.1645C61.5466 45.0868 61.3968 45.0204 61.2906 44.973L61.2909 44.9727Z" fill="black"/>
<path d="M0.0665283 51.5757H5.61503V52.8725H1.62075V54.9874H5.36294V56.2842H1.62075V59.5836H0.0665283V51.5757Z" fill="black"/>
<path d="M12.2277 56.587C12.2277 58.3731 11.1565 59.7226 9.25837 59.7226C7.36029 59.7226 6.33575 58.4012 6.33575 56.616C6.33575 54.8309 7.43931 53.4746 9.33488 53.4746C11.0895 53.4746 12.2279 54.715 12.2279 56.587H12.2277ZM7.88678 56.5987C7.88678 57.7855 8.4249 58.5306 9.2964 58.5306C10.1679 58.5306 10.6766 57.7965 10.6766 56.6075C10.6766 55.3361 10.1766 54.6668 9.27294 54.6668C8.36933 54.6668 7.88678 55.3129 7.88678 56.5987Z" fill="black"/>
<path d="M13.4251 55.2337C13.4251 54.5838 13.4221 54.0703 13.4132 53.6137H14.9087C14.9292 53.7554 14.9499 54.3187 14.9499 54.7017C15.2279 53.9899 15.8902 53.4859 16.9111 53.4746V54.9227C15.6914 54.9076 14.9499 55.3046 14.9499 56.9113V59.5835H13.4251V55.2337Z" fill="black"/>
<path d="M22.0348 57.2646C22.228 58.1062 22.8312 58.4986 23.8259 58.4986C24.8206 58.4986 25.2644 58.0805 25.2644 57.4534C25.2644 56.7652 24.8716 56.4423 23.4283 56.1068C21.2941 55.6079 20.7204 54.8504 20.7204 53.7586C20.7204 52.4125 21.7365 51.4595 23.6285 51.4595C25.7267 51.4595 26.5688 52.5927 26.6832 53.7352H25.0791C24.98 53.1897 24.6619 52.6425 23.5843 52.6425C22.8068 52.6425 22.3477 52.9685 22.3477 53.5838C22.3477 54.199 22.7189 54.4301 24.055 54.7397C26.401 55.2902 26.8915 56.1619 26.8915 57.2668C26.8915 58.6881 25.8082 59.6933 23.7045 59.6933C21.6008 59.6933 20.6182 58.6685 20.4303 57.2643H22.0344L22.0348 57.2646Z" fill="black"/>
<path d="M28.06 55.1178C28.06 54.6079 28.06 54.0599 28.0482 53.6137H29.5259C29.5582 53.7728 29.5787 54.2375 29.5848 54.426C29.7987 54.0187 30.2883 53.4746 31.3725 53.4746C32.5669 53.4746 33.3783 54.2552 33.3783 55.776V59.5835H31.8534V55.9475C31.8534 55.2222 31.5966 54.7073 30.8152 54.7073C30.0339 54.7073 29.5848 55.2073 29.5848 56.2956V59.5835H28.06V55.1178Z" fill="black"/>
<path d="M40.45 56.587C40.45 58.3731 39.3788 59.7226 37.4807 59.7226C35.5826 59.7226 34.5581 58.4012 34.5581 56.616C34.5581 54.8309 35.6617 53.4746 37.5572 53.4746C39.3119 53.4746 40.4502 54.715 40.4502 56.587H40.45ZM36.1091 56.5987C36.1091 57.7855 36.6472 58.5306 37.5187 58.5306C38.3903 58.5306 38.899 57.7965 38.899 56.6075C38.899 55.3361 38.3989 54.6668 37.4953 54.6668C36.5917 54.6668 36.1091 55.3129 36.1091 56.5987Z" fill="black"/>
<path d="M41.6476 55.2337C41.6476 54.5838 41.6447 54.0703 41.6358 53.6137H43.1313C43.1518 53.7554 43.1725 54.3187 43.1725 54.7017C43.4505 53.9899 44.1128 53.4859 45.1336 53.4746V54.9227C43.914 54.9076 43.1725 55.3046 43.1725 56.9113V59.5835H41.6476V55.2337Z" fill="black"/>
<path d="M46.0974 51.1118H47.6222V52.5421H46.0974V51.1118ZM46.0974 53.6137H47.6222V59.5835H46.0974V53.6137Z" fill="black"/>
<path d="M49.2003 55.1178C49.2003 54.6079 49.2003 54.0599 49.1885 53.6137H50.6662C50.6985 53.7728 50.719 54.2375 50.7252 54.426C50.939 54.0187 51.4286 53.4746 52.5128 53.4746C53.7072 53.4746 54.5186 54.2552 54.5186 55.776V59.5835H52.9938V55.9475C52.9938 55.2222 52.7369 54.7073 51.9556 54.7073C51.1742 54.7073 50.7252 55.2073 50.7252 56.2956V59.5835H49.2003V55.1178Z" fill="black"/>
<path d="M61.4446 58.901C61.4446 60.8167 60.7093 62.0001 58.4951 62.0001C56.281 62.0001 55.912 60.8304 55.8421 60.1245H57.3963C57.5277 60.5916 57.8864 60.8866 58.5628 60.8866C59.7157 60.8866 59.9519 60.1843 59.9519 58.966V58.6345C59.6351 59.1868 59.1225 59.5223 58.2057 59.5223C56.6387 59.5223 55.7071 58.2551 55.7071 56.616C55.7071 54.7303 56.8418 53.4746 58.3409 53.4746C59.4044 53.4746 59.8496 53.9697 59.9519 54.2757C59.9637 54.0883 60.002 53.7176 60.0136 53.6137H61.459C61.4501 54.1022 61.4444 54.7555 61.4444 55.3293V58.901H61.4446ZM57.2761 56.5494C57.2761 57.6311 57.829 58.2954 58.6274 58.2954C59.7039 58.2954 59.9992 57.5697 59.9992 56.4916C59.9992 55.4135 59.7779 54.6931 58.6627 54.6931C57.8452 54.6931 57.2761 55.3331 57.2761 56.5494Z" fill="black"/>
<path d="M66.074 51.5757H69.3603C71.0475 51.5757 72.1946 52.5123 72.1946 54.0195C72.1946 55.716 70.9086 56.5212 69.3136 56.5212H67.6663V59.5836H66.074V51.5757ZM67.6663 55.2592H69.1331C70.0157 55.2592 70.5846 54.8962 70.5846 54.0512C70.5846 53.2063 69.9636 52.8374 69.1711 52.8374H67.6663V55.2592Z" fill="black"/>
<path d="M74.3108 56.9131C74.3138 57.7695 74.7485 58.5306 75.6266 58.5306C76.3838 58.5306 76.6085 58.205 76.7755 57.826H78.3033C78.0835 58.5648 77.4265 59.7226 75.5856 59.7226C73.6169 59.7226 72.7744 58.2394 72.7744 56.6799C72.7744 54.8302 73.731 53.4746 75.6471 53.4746C77.6923 53.4746 78.3821 54.9724 78.3821 56.4117C78.3821 56.6091 78.3821 56.745 78.3616 56.9131H74.311H74.3108ZM76.8513 55.9657C76.8395 55.2033 76.5072 54.5705 75.6412 54.5705C74.7751 54.5705 74.4219 55.1601 74.3461 55.9657H76.8515H76.8513Z" fill="black"/>
<path d="M85.179 56.587C85.179 58.3731 84.1077 59.7226 82.2097 59.7226C80.3116 59.7226 79.287 58.4012 79.287 56.616C79.287 54.8309 80.3906 53.4746 82.2862 53.4746C84.0408 53.4746 85.1792 54.715 85.1792 56.587H85.179ZM80.8381 56.5987C80.8381 57.7855 81.3762 58.5306 82.2477 58.5306C83.1192 58.5306 83.6279 57.7965 83.6279 56.6075C83.6279 55.3361 83.1278 54.6668 82.2242 54.6668C81.3206 54.6668 80.8381 55.3129 80.8381 56.5987Z" fill="black"/>
<path d="M87.8923 59.0061V61.8842H86.3763V55.0568C86.3763 54.5728 86.3763 54.0892 86.3645 53.6137H87.8422C87.8657 53.7813 87.8923 54.1465 87.8923 54.4031C88.1674 53.9265 88.724 53.4746 89.6998 53.4746C91.0661 53.4746 92.1075 54.6045 92.1075 56.4479C92.1075 58.5603 90.9372 59.7226 89.4739 59.7226C88.5923 59.7226 88.1323 59.3843 87.8923 59.0058V59.0061ZM90.5562 56.5064C90.5562 55.3721 90.0764 54.6961 89.2252 54.6961C88.2043 54.6961 87.8304 55.3408 87.8304 56.6021C87.8304 57.8634 88.1637 58.5135 89.1518 58.5135C90.0882 58.5135 90.556 57.7824 90.556 56.5067L90.5562 56.5064Z" fill="black"/>
<path d="M93.308 59.5835V51.1118H94.8329V59.5835H93.308Z" fill="black"/>
<path d="M97.5669 56.9131C97.5699 57.7695 98.0046 58.5306 98.8827 58.5306C99.6399 58.5306 99.8647 58.205 100.032 57.826H101.559C101.34 58.5648 100.683 59.7226 98.8417 59.7226C96.873 59.7226 96.0305 58.2394 96.0305 56.6799C96.0305 54.8302 96.9871 53.4746 98.9032 53.4746C100.948 53.4746 101.638 54.9724 101.638 56.4117C101.638 56.6091 101.638 56.745 101.618 56.9131H97.5671H97.5669ZM100.107 55.9657C100.096 55.2033 99.7633 54.5705 98.8973 54.5705C98.0312 54.5705 97.678 55.1601 97.6022 55.9657H100.108H100.107Z" fill="black"/>
</svg>
