<svg width="184" height="70" viewBox="0 0 184 70" fill="none" xmlns="http://www.w3.org/2000/svg">
<g filter="url(#filter0_d_1901_18)">
<g filter="url(#filter1_d_1901_18)">
<path d="M10.0879 38.932C10.7273 41.9593 13.005 43.6873 16.5409 43.6873C20.3903 43.6873 21.9309 41.9213 21.9309 39.5589C21.9309 37.1965 20.3826 35.9177 15.3804 34.6463C7.59268 32.6647 5.83351 30.1097 5.83351 26.2401C5.83351 22.3704 8.59649 18.1613 16.0966 18.1613C23.5967 18.1613 26.3802 22.2336 26.7395 26.428H21.4966C21.0986 24.5069 19.8839 22.2158 15.855 22.2158C12.4705 22.2158 11.1866 23.812 11.1866 25.7911C11.1866 27.7703 12.2959 28.8081 17.2313 30.0235C25.3889 32.0332 27.3917 34.7734 27.3917 39.1352C27.3917 44.291 23.2474 47.7799 16.366 47.7799C9.48462 47.7799 5.38694 44.4558 4.75 38.932H10.0879Z" fill="black"/>
<path d="M30.6224 26.8008C30.6224 22.6166 30.594 20.4777 30.5375 18.7751H35.8036C35.914 19.4502 36.0245 22.1247 36.0065 23.1598C37.157 20.7619 39.6323 18.1613 44.6573 18.1613C50.1215 18.1613 54.0245 21.4141 54.0245 28.8792V47.1937H48.6122V29.6452C48.6122 25.6284 47.1766 22.7282 42.991 22.7282C38.0761 22.7282 36.0193 26.2605 36.0193 31.9342V47.1937H30.6224V26.8011V26.8008Z" fill="black"/>
<path d="M91.1374 27.7358C91.1374 23.582 91.1067 20.6514 91.0527 19.0553H96.3441C96.4393 20.0983 96.4931 22.1762 96.4931 24.6833C97.8592 21.1665 101.061 18.5582 105.886 18.4669V23.8482C99.7671 23.9877 96.5343 27.0709 96.5343 33.8254V47.4739H91.1372V27.7358H91.1374Z" fill="black"/>
<path d="M115.367 55.6038H109.316V62H115.367V55.6038Z" fill="black"/>
<path d="M115.367 43.9177V58.3505H109.316V26.405C109.316 24.8573 109.32 23.4497 109.311 22.1789C109.303 20.9084 109.283 19.7747 109.235 18.7749H115.168C115.223 19.2405 115.269 19.9289 115.303 20.701C115.338 21.473 115.36 22.3288 115.368 23.1292C116.163 21.7692 117.348 20.5272 119.011 19.6251C120.674 18.7232 122.815 18.161 125.521 18.161C129.13 18.161 132.261 19.4487 134.49 21.8731C136.719 24.2976 138.047 27.8587 138.047 32.4057C138.047 37.3118 136.536 41.1514 134.058 43.7645C131.579 46.3778 128.133 47.7644 124.263 47.7644C121.839 47.7644 119.961 47.3375 118.517 46.6431C117.072 45.9489 116.061 44.9871 115.368 43.9175L115.367 43.9177ZM131.804 32.5834C131.804 26.3033 128.784 22.6722 123.67 22.6722C117.291 22.6722 115.092 26.3134 115.092 33.0096C115.092 39.2999 116.825 43.3066 123.299 43.3066C128.776 43.3066 131.804 39.376 131.804 32.5832V32.5834Z" fill="black"/>
<path d="M141.571 47.1935V0H147.235V47.1935H141.571Z" fill="black"/>
<path d="M157.16 34.0409C157.16 39.3469 160.027 43.4269 165.588 43.4269C170.614 43.4269 172.19 40.869 173.003 39.1437H179.213C177.976 42.8329 174.504 47.8062 165.362 47.8062C154.869 47.8062 150.84 40.7801 150.84 33.1251C150.84 25.47 155.38 18.1725 165.703 18.1725C176.026 18.1725 179.75 25.2821 179.75 31.765C179.75 32.308 179.735 33.5387 179.673 34.0409H157.16ZM173.519 30.334C173.403 25.8706 171.086 22.3484 165.602 22.3484C159.685 22.3484 157.73 26.3881 157.323 30.334H173.519Z" fill="black"/>
<path d="M65.1063 20.4683C64.5987 20.7223 63.9125 21.1148 63.1818 21.6996C62.1488 22.5262 61.5353 23.33 61.0218 24.0118C60.6026 24.5688 59.8848 25.5346 59.2772 26.9671C59.1754 27.2072 58.8051 28.1006 58.5296 29.3342C58.4353 29.7566 58.2768 30.555 58.2112 31.578C58.1329 32.7983 58.2247 33.7394 58.2666 34.1091C58.3688 35.0088 58.535 35.6823 58.5988 35.9289C58.6516 36.1328 58.8042 36.7028 59.0834 37.4202C59.1955 37.7085 59.4255 38.271 59.7896 38.9527C60.2314 39.7799 60.6506 40.3699 60.8141 40.5945C60.9656 40.8024 61.3254 41.284 61.8525 41.8533C62.267 42.3009 62.6646 42.6731 63.0155 42.9753C63.069 42.854 63.1469 42.6882 63.251 42.4964C63.3111 42.3857 63.5919 41.8758 64.1232 41.2513C64.692 40.5826 65.2256 40.162 65.3554 40.0609C66.0108 39.5519 66.5785 39.2769 67.0861 39.0348C67.5044 38.8352 68.1008 38.5544 68.9414 38.337C69.8958 38.0903 70.6254 38.0651 71.0736 38.0496C71.0736 38.0496 71.4256 38.0375 72.015 38.1043C72.4802 38.1572 72.6439 38.2148 72.7904 38.3233C73.0108 38.4866 73.1049 38.7002 73.1365 38.7747C73.1764 38.8685 73.2802 39.1221 73.2057 39.4313C73.1402 39.704 72.9721 39.8699 72.8735 39.9648C72.8236 40.0128 72.6508 40.1719 72.112 40.3616C71.9712 40.4111 71.8159 40.459 71.1013 40.6215C70.7784 40.6948 70.6541 40.7205 70.2984 40.7993C69.6885 40.9343 69.3838 41.0018 69.2185 41.0454C68.8323 41.1476 68.541 41.2502 67.9585 41.4559C67.8226 41.5038 67.3887 41.658 66.8509 41.8801C66.415 42.0599 66.7502 41.9379 66.1308 42.2221C66.1308 42.2221 66.0559 42.2565 65.7154 42.482C65.6683 42.5133 65.5849 42.5698 65.5355 42.6735C65.5169 42.7127 65.4863 42.7786 65.5077 42.8513C65.5305 42.9285 65.5988 42.969 65.6323 42.9881C65.7355 43.0473 65.8263 43.0343 66.0477 43.0291C66.2601 43.0243 66.1606 43.0367 66.3524 43.0291C66.9189 43.0068 67.363 42.9469 67.363 42.9469C68.0321 42.8569 68.1314 42.8801 68.8029 42.7964C69.9516 42.6535 70.9408 42.4264 71.3368 42.3313C72.8421 41.9692 73.8855 41.5594 74.8121 41.1955C75.0038 41.1201 75.4281 40.9511 75.9475 40.662C76.3643 40.43 76.6974 40.2416 77.0552 39.8958C77.28 39.6786 77.5585 39.4041 77.7614 38.9518C77.8367 38.7837 78.0433 38.3077 77.9829 37.6929C77.9449 37.3068 77.8187 37.0406 77.609 36.5984C77.4416 36.2456 77.2633 35.9566 77.083 35.6954C76.6838 35.1175 76.2982 34.7097 75.8091 34.2176C74.9961 33.3996 74.3416 32.7972 74.1754 32.6442C73.1424 31.695 73.0044 31.5949 72.237 30.8928C71.2851 30.0221 70.5796 29.3767 69.7031 28.4573C68.748 27.4554 68.1671 26.7338 68.0139 26.5418C67.5923 26.0141 67.1713 25.483 66.6985 24.7085C66.2453 23.9661 65.9627 23.3574 65.8124 23.012C65.6533 22.6465 65.4879 22.2629 65.3417 21.7259C65.2046 21.2228 65.1397 20.7876 65.1063 20.4671V20.4683Z" fill="black"/>
<path d="M66.0409 44.9729C66.5592 44.9326 67.1886 44.873 67.9032 44.7814C68.9567 44.6464 69.8309 44.4891 70.4578 44.3642C71.3289 44.1907 72.0642 44.0442 73.0452 43.7503C73.74 43.5421 74.3282 43.3214 75.5046 42.8799C76.0717 42.667 76.3119 42.5682 76.5845 42.442C76.9193 42.2872 77.5018 41.9987 78.1768 41.5527C78.3931 41.4098 78.7392 41.1796 79.1598 40.8274C79.58 40.4759 79.8551 40.1863 79.9214 40.1158C80.1279 39.8964 80.3267 39.6858 80.5444 39.3633C80.7885 39.0019 80.9231 38.6984 81.0151 38.4878C81.1613 38.1534 81.2658 37.9139 81.3198 37.571C81.3342 37.4796 81.3731 37.1918 81.3337 36.8185C81.3128 36.6193 81.272 36.4211 81.1814 36.1344C80.9718 35.4712 80.6988 34.978 80.6414 34.8756C80.1734 34.0405 79.6401 33.4361 79.3953 33.1653C78.5757 32.2596 77.8623 31.6437 77.18 31.0584C75.7025 29.791 74.2043 28.5214 73.6633 28.0621C72.0703 26.7099 71.7123 26.3877 71.3509 26.0508C70.5079 25.265 69.8871 24.6822 69.1632 23.807C68.578 23.0991 68.0134 22.4166 67.4878 21.3715C66.9848 20.3715 66.7671 19.5362 66.5325 18.6352C66.2162 17.4207 66.1137 16.51 66.0894 16.2818C66.0113 15.5478 66.0081 14.9985 66.0063 14.3801C66.0044 13.7032 66.0283 12.8087 66.1308 11.7531C66.167 12.2076 66.2283 12.8004 66.3385 13.4908C66.3991 13.8702 66.4975 14.424 66.6569 15.0916C66.8702 15.9852 67.0499 16.4823 67.2246 16.8703C67.2918 17.0197 67.4398 17.3338 67.7092 17.6774C67.8968 17.9166 68.0394 18.0379 68.0831 18.0742C68.1321 18.1147 68.3443 18.2875 68.6784 18.4299C68.7349 18.454 68.9904 18.5607 69.3846 18.6214C69.4795 18.6361 69.7421 18.6727 70.4783 18.6352C70.806 18.6185 70.8593 18.6059 71.3783 18.5668C71.9064 18.5269 72.1703 18.5071 72.472 18.4984C73.0377 18.4817 73.5143 18.5101 73.8427 18.5393C73.9762 18.5512 74.566 18.6061 75.3382 18.772C75.8317 18.878 76.1974 18.9855 76.4458 19.0594C76.7929 19.1624 77.2522 19.2999 77.8304 19.5382C77.9864 19.6026 78.5076 19.8211 79.1596 20.1814C79.3566 20.2903 79.9432 20.6206 80.6551 21.1391C81.4487 21.7172 82.0023 22.2404 82.2473 22.4798C82.5778 22.8027 82.8182 23.0698 82.9257 23.1913C83.4734 23.81 83.8271 24.3255 84.0612 24.6691C84.2973 25.0157 84.5719 25.4189 84.878 25.9963C85.251 26.6998 85.4614 27.2664 85.5981 27.6382C85.7404 28.0257 85.9702 28.6593 86.1519 29.5264C86.1849 29.6839 86.3395 30.4375 86.401 31.4556C86.4197 31.7632 86.457 32.549 86.3732 33.5625C86.3461 33.8899 86.304 34.3834 86.1794 35.0266C86.0405 35.7433 85.872 36.2717 85.7087 36.7778C85.5373 37.3088 85.4136 37.6925 85.1827 38.2006C84.8798 38.8669 84.5772 39.3417 84.352 39.6919C83.9871 40.2592 83.6729 40.6582 83.452 40.937C83.0587 41.4334 82.5507 42.0691 81.7627 42.784C81.4792 43.0415 81.0388 43.4184 80.4613 43.8239C80.1705 44.028 79.7276 44.3217 79.1598 44.6311C78.969 44.735 78.3539 45.0643 77.4984 45.3973C77.3629 45.45 76.8507 45.6471 76.1553 45.8487C75.6288 46.0015 75.1501 46.1403 74.4938 46.2317C74.2118 46.2711 73.9782 46.2898 73.5107 46.3276C73.0147 46.3676 72.7376 46.3899 72.403 46.396C71.7679 46.4077 71.2988 46.3546 70.6999 46.2866C70.3198 46.2434 69.9049 46.1952 69.3568 46.0814C68.9341 45.9934 68.6171 45.905 68.3183 45.8215C67.867 45.6955 67.5796 45.6151 67.1968 45.4657C66.9657 45.3755 66.6849 45.2544 66.4767 45.1646C66.2966 45.087 66.1468 45.0206 66.0406 44.9731L66.0409 44.9729Z" fill="black"/>
<path d="M4.81653 51.5757H10.365V52.8726H6.37075V54.9874H10.1129V56.2842H6.37075V59.5836H4.81653V51.5757Z" fill="black"/>
<path d="M16.9777 56.5871C16.9777 58.3732 15.9065 59.7227 14.0084 59.7227C12.1103 59.7227 11.0858 58.4013 11.0858 56.6162C11.0858 54.831 12.1893 53.4748 14.0849 53.4748C15.8395 53.4748 16.9779 54.7151 16.9779 56.5871H16.9777ZM12.6368 56.5988C12.6368 57.7857 13.1749 58.5307 14.0464 58.5307C14.9179 58.5307 15.4266 57.7967 15.4266 56.6076C15.4266 55.3362 14.9266 54.667 14.0229 54.667C13.1193 54.667 12.6368 55.313 12.6368 56.5988Z" fill="black"/>
<path d="M18.1751 55.2338C18.1751 54.5839 18.1721 54.0704 18.1632 53.6138H19.6587C19.6792 53.7556 19.6999 54.3188 19.6999 54.7019C19.9779 53.9901 20.6402 53.486 21.6611 53.4748V54.9228C20.4414 54.9077 19.6999 55.3047 19.6999 56.9114V59.5836H18.1751V55.2338Z" fill="black"/>
<path d="M26.7848 57.2649C26.978 58.1065 27.5812 58.499 28.5759 58.499C29.5706 58.499 30.0144 58.0809 30.0144 57.4537C30.0144 56.7656 29.6216 56.4427 28.1783 56.1072C26.0441 55.6083 25.4704 54.8508 25.4704 53.759C25.4704 52.4128 26.4865 51.4598 28.3785 51.4598C30.4767 51.4598 31.3188 52.5931 31.4332 53.7356H29.8291C29.73 53.1901 29.4119 52.6428 28.3343 52.6428C27.5568 52.6428 27.0977 52.9689 27.0977 53.5841C27.0977 54.1994 27.4689 54.4305 28.805 54.7401C31.151 55.2905 31.6415 56.1623 31.6415 57.2672C31.6415 58.6885 30.5582 59.6937 28.4545 59.6937C26.3508 59.6937 25.3682 58.6689 25.1803 57.2647H26.7844L26.7848 57.2649Z" fill="black"/>
<path d="M32.81 55.1179C32.81 54.608 32.81 54.0601 32.7982 53.6138H34.2759C34.3082 53.7729 34.3287 54.2376 34.3348 54.4262C34.5487 54.0189 35.0383 53.4748 36.1225 53.4748C37.3169 53.4748 38.1283 54.2554 38.1283 55.7761V59.5836H36.6034V55.9476C36.6034 55.2223 36.3466 54.7075 35.5652 54.7075C34.7839 54.7075 34.3348 55.2075 34.3348 56.2957V59.5836H32.81V55.1179Z" fill="black"/>
<path d="M45.2 56.5871C45.2 58.3732 44.1288 59.7227 42.2307 59.7227C40.3326 59.7227 39.3081 58.4013 39.3081 56.6162C39.3081 54.831 40.4117 53.4748 42.3072 53.4748C44.0619 53.4748 45.2002 54.7151 45.2002 56.5871H45.2ZM40.8591 56.5988C40.8591 57.7857 41.3972 58.5307 42.2687 58.5307C43.1403 58.5307 43.649 57.7967 43.649 56.6076C43.649 55.3362 43.1489 54.667 42.2453 54.667C41.3417 54.667 40.8591 55.313 40.8591 56.5988Z" fill="black"/>
<path d="M46.3976 55.2338C46.3976 54.5839 46.3947 54.0704 46.3858 53.6138H47.8813C47.9018 53.7556 47.9225 54.3188 47.9225 54.7019C48.2005 53.9901 48.8628 53.486 49.8836 53.4748V54.9228C48.664 54.9077 47.9225 55.3047 47.9225 56.9114V59.5836H46.3976V55.2338Z" fill="black"/>
<path d="M50.8474 51.1119H52.3722V52.5422H50.8474V51.1119ZM50.8474 53.6138H52.3722V59.5836H50.8474V53.6138Z" fill="black"/>
<path d="M53.9503 55.1179C53.9503 54.608 53.9503 54.0601 53.9385 53.6138H55.4162C55.4485 53.7729 55.469 54.2376 55.4752 54.4262C55.689 54.0189 56.1786 53.4748 57.2628 53.4748C58.4572 53.4748 59.2686 54.2554 59.2686 55.7761V59.5836H57.7438V55.9476C57.7438 55.2223 57.4869 54.7075 56.7056 54.7075C55.9243 54.7075 55.4752 55.2075 55.4752 56.2957V59.5836H53.9503V55.1179Z" fill="black"/>
<path d="M66.1946 58.9009C66.1946 60.8166 65.4593 62 63.2451 62C61.031 62 60.662 60.8303 60.5921 60.1244H62.1463C62.2777 60.5915 62.6364 60.8865 63.3128 60.8865C64.4657 60.8865 64.7019 60.1842 64.7019 58.9659V58.6344C64.3851 59.1867 63.8725 59.5222 62.9557 59.5222C61.3887 59.5222 60.4571 58.255 60.4571 56.6159C60.4571 54.7302 61.5918 53.4745 63.0909 53.4745C64.1544 53.4745 64.5996 53.9696 64.7019 54.2756C64.7137 54.0882 64.752 53.7175 64.7636 53.6136H66.209C66.2001 54.1021 66.1944 54.7554 66.1944 55.3292V58.9009H66.1946ZM62.0261 56.5493C62.0261 57.631 62.579 58.2953 63.3774 58.2953C64.4539 58.2953 64.7492 57.5696 64.7492 56.4915C64.7492 55.4134 64.5279 54.6931 63.4127 54.6931C62.5952 54.6931 62.0261 55.333 62.0261 56.5493Z" fill="black"/>
<path d="M70.824 51.5757H74.1103C75.7975 51.5757 76.9446 52.5123 76.9446 54.0195C76.9446 55.716 75.6586 56.5212 74.0636 56.5212H72.4163V59.5836H70.824V51.5757ZM72.4163 55.2592H73.8831C74.7657 55.2592 75.3346 54.8963 75.3346 54.0513C75.3346 53.2063 74.7136 52.8375 73.9211 52.8375H72.4163V55.2592Z" fill="black"/>
<path d="M79.0608 56.9132C79.0638 57.7697 79.4985 58.5307 80.3766 58.5307C81.1338 58.5307 81.3585 58.2051 81.5255 57.8262H83.0533C82.8335 58.5649 82.1765 59.7227 80.3356 59.7227C78.3669 59.7227 77.5244 58.2395 77.5244 56.6801C77.5244 54.8303 78.481 53.4748 80.3971 53.4748C82.4423 53.4748 83.1321 54.9726 83.1321 56.4119C83.1321 56.6092 83.1321 56.7451 83.1116 56.9132H79.061H79.0608ZM81.6013 55.9658C81.5895 55.2034 81.2572 54.5707 80.3912 54.5707C79.5251 54.5707 79.1719 55.1602 79.0961 55.9658H81.6015H81.6013Z" fill="black"/>
<path d="M89.929 56.5871C89.929 58.3732 88.8577 59.7227 86.9597 59.7227C85.0616 59.7227 84.037 58.4013 84.037 56.6162C84.037 54.831 85.1406 53.4748 87.0362 53.4748C88.7908 53.4748 89.9292 54.7151 89.9292 56.5871H89.929ZM85.5881 56.5988C85.5881 57.7857 86.1262 58.5307 86.9977 58.5307C87.8692 58.5307 88.3779 57.7967 88.3779 56.6076C88.3779 55.3362 87.8778 54.667 86.9742 54.667C86.0706 54.667 85.5881 55.313 85.5881 56.5988Z" fill="black"/>
<path d="M92.6423 59.006V61.8841H91.1263V55.0567C91.1263 54.5727 91.1263 54.0891 91.1145 53.6136H92.5922C92.6157 53.7812 92.6423 54.1465 92.6423 54.403C92.9174 53.9264 93.474 53.4745 94.4498 53.4745C95.8161 53.4745 96.8575 54.6044 96.8575 56.4478C96.8575 58.5602 95.6872 59.7225 94.2239 59.7225C93.3423 59.7225 92.8823 59.3842 92.6423 59.0057V59.006ZM95.3062 56.5063C95.3062 55.372 94.8264 54.696 93.9752 54.696C92.9543 54.696 92.5804 55.3407 92.5804 56.602C92.5804 57.8633 92.9137 58.5134 93.9018 58.5134C94.8382 58.5134 95.306 57.7823 95.306 56.5066L95.3062 56.5063Z" fill="black"/>
<path d="M98.058 59.5836V51.1119H99.5829V59.5836H98.058Z" fill="black"/>
<path d="M102.317 56.9132C102.32 57.7697 102.755 58.5307 103.633 58.5307C104.39 58.5307 104.615 58.2051 104.782 57.8262H106.309C106.09 58.5649 105.433 59.7227 103.592 59.7227C101.623 59.7227 100.78 58.2395 100.78 56.6801C100.78 54.8303 101.737 53.4748 103.653 53.4748C105.698 53.4748 106.388 54.9726 106.388 56.4119C106.388 56.6092 106.388 56.7451 106.368 56.9132H102.317H102.317ZM104.857 55.9658C104.846 55.2034 104.513 54.5707 103.647 54.5707C102.781 54.5707 102.428 55.1602 102.352 55.9658H104.858H104.857Z" fill="black"/>
</g>
</g>
<defs>
<filter id="filter0_d_1901_18" x="0.75" y="0" width="183" height="70" filterUnits="userSpaceOnUse" color-interpolation-filters="sRGB">
<feFlood flood-opacity="0" result="BackgroundImageFix"/>
<feColorMatrix in="SourceAlpha" type="matrix" values="0 0 0 0 0 0 0 0 0 0 0 0 0 0 0 0 0 0 127 0" result="hardAlpha"/>
<feOffset dy="4"/>
<feGaussianBlur stdDeviation="2"/>
<feComposite in2="hardAlpha" operator="out"/>
<feColorMatrix type="matrix" values="0 0 0 0 0 0 0 0 0 0 0 0 0 0 0 0 0 0 0.25 0"/>
<feBlend mode="normal" in2="BackgroundImageFix" result="effect1_dropShadow_1901_18"/>
<feBlend mode="normal" in="SourceGraphic" in2="effect1_dropShadow_1901_18" result="shape"/>
</filter>
<filter id="filter1_d_1901_18" x="0.75" y="0" width="183" height="70" filterUnits="userSpaceOnUse" color-interpolation-filters="sRGB">
<feFlood flood-opacity="0" result="BackgroundImageFix"/>
<feColorMatrix in="SourceAlpha" type="matrix" values="0 0 0 0 0 0 0 0 0 0 0 0 0 0 0 0 0 0 127 0" result="hardAlpha"/>
<feOffset dy="4"/>
<feGaussianBlur stdDeviation="2"/>
<feComposite in2="hardAlpha" operator="out"/>
<feColorMatrix type="matrix" values="0 0 0 0 0 0 0 0 0 0 0 0 0 0 0 0 0 0 0.25 0"/>
<feBlend mode="normal" in2="BackgroundImageFix" result="effect1_dropShadow_1901_18"/>
<feBlend mode="normal" in="SourceGraphic" in2="effect1_dropShadow_1901_18" result="shape"/>
</filter>
</defs>
</svg>
